# xmcd
# Copyright (C) 1995-1998 Ti Kan
#
# Track frame offsets:
#       150
#       23188
#       39797
#       60074
#       79329
#       112206
#       132217
#       135604
#       156315
#       178961
#       220387
#
# Disc length: 3932 seconds
#
# Revision: 0
# Processed by: cddbd v1.5.2PL0 Copyright (c) Steve Scherf et al.
# Submitted via: CD-Import v1.0
#
DISCID=970f5a0b
DTITLE=Zhivago - Zhivago
DYEAR=07
DGENRE=
TTITLE0=Restlessness
TTITLE1=I Shot The Sheriff
TTITLE2=Something Special
TTITLE3=Get Rid Of You
TTITLE4=High On Wine
TTITLE5=All Undefined
TTITLE6=Who Killed Mandy Bug?
TTITLE7=Me, Myself And I
TTITLE8=Every Night We Die
TTITLE9=Rowed Away
TTITLE10=Data Track
EXTD=
EXTT0=
EXTT1=
EXTT2=
EXTT3=
EXTT4=
EXTT5=
EXTT6=
EXTT7=
EXTT8=
EXTT9=
EXTT10=
PLAYORDER=
